<?xml version="1.0" encoding="UTF-8" standalone="no"?>
<!-- Created with Inkscape (http://www.inkscape.org/) -->

<svg
   width="210mm"
   height="297mm"
   viewBox="0 0 210 297"
   version="1.1"
   id="svg5"
   inkscape:version="1.1 (ce6663b3b7, 2021-05-25)"
   sodipodi:docname="logo-aranha2.svg"
   xmlns:inkscape="http://www.inkscape.org/namespaces/inkscape"
   xmlns:sodipodi="http://sodipodi.sourceforge.net/DTD/sodipodi-0.dtd"
   xmlns="http://www.w3.org/2000/svg"
   xmlns:svg="http://www.w3.org/2000/svg">
  <sodipodi:namedview
     id="namedview7"
     pagecolor="#ffffff"
     bordercolor="#666666"
     borderopacity="1.0"
     inkscape:pageshadow="2"
     inkscape:pageopacity="0.0"
     inkscape:pagecheckerboard="0"
     inkscape:document-units="mm"
     showgrid="false"
     inkscape:zoom="0.46858866"
     inkscape:cx="399.07069"
     inkscape:cy="495.10374"
     inkscape:window-width="1366"
     inkscape:window-height="729"
     inkscape:window-x="1366"
     inkscape:window-y="0"
     inkscape:window-maximized="1"
     inkscape:current-layer="layer1" />
  <defs
     id="defs2" />
  <g
     inkscape:label="Layer 1"
     inkscape:groupmode="layer"
     id="layer1">
    <path
       style="fill:#ffffff;stroke:none;stroke-width:0.264583"
       d="m 34.427198,135.88012 c -0.36169,-1.94812 -0.75195,-4.97734 -0.072,-6.87916 0.81412,-2.27754 3.40995,-4.43363 5.09905,-6.08145 5.02788,-4.90511 10.89104,-9.13553 16.66875,-13.10296 2.37225,-1.62878 6.61114,-5.61499 9.525,-5.81475 1.66396,-0.11403 4.04521,1.51897 5.55625,2.17117 4.47754,1.93199 9.02256,4.32726 12.7,7.55782 1.64174,1.44251 3.41577,3.43959 3.60257,5.74411 0.16192,1.99972 -2.20425,1.94786 -3.60257,1.8079 -2.66488,-0.26617 -5.39062,-0.94959 -7.9375,-1.76345 -1.01521,-0.32465 -2.87867,-1.22 -3.92377,-0.78105 -1.95739,0.82232 -3.76978,4.16666 -5.14747,5.765 -3.76529,4.36775 -7.64117,8.80825 -12.11924,12.46955 -1.8833,1.54014 -3.79174,3.03292 -5.79702,4.41299 -0.91175,0.62732 -2.33019,1.23772 -2.90301,2.2225 -0.81518,1.40097 -0.41698,4.13173 -0.77047,5.76553 -0.52096,2.40798 -2.35532,5.09376 -2.55799,7.40834 -0.33681,3.84836 1.51739,8.63388 2.17779,12.43541 3.18902,18.35441 7.09401,36.81333 13.0294,54.50417 1.81319,5.40411 3.72851,10.84871 6.45716,15.875 1.06998,1.97088 2.15424,4.35478 3.8817,5.82083 -0.25241,-2.87231 -1.81239,-5.98143 -2.71409,-8.73125 -1.6555,-5.04798 -2.97709,-10.22191 -4.35319,-15.34583 -3.99812,-14.88969 -6.77016,-30.08392 -9.40303,-45.24375 -0.74904,-4.31244 -1.03584,-8.63918 -1.59782,-12.96458 -0.52573,-4.04522 -1.60126,-9.17813 -0.6342,-13.22917 0.67098,-2.81067 4.31297,-5.69965 6.26586,-7.67292 6.58257,-6.65109 14.05652,-12.63941 23.28439,-15.04024 3.65866,-0.9517 11.26543,-2.00448 13.39797,2.36406 0.89218,1.82774 -1.86955,3.57769 -3.07949,4.436 -2.97312,2.10899 -6.33941,3.72586 -9.78931,4.88685 -1.27186,0.4281 -4.16402,0.61622 -5.01968,1.69651 -0.63368,0.80037 -0.48128,3.01678 -0.64505,4.03807 -0.59981,3.7338 -1.82378,7.6843 -2.21906,11.37709 -0.52652,4.91781 1.28296,10.68731 1.75339,15.61041 1.26286,13.2162 3.27554,26.67609 7.11465,39.42292 1.96559,6.52621 5.21705,12.60104 7.21783,19.05 h 0.26458 c -0.95726,-7.53454 -3.23188,-15.01881 -4.64079,-22.48958 -3.15807,-16.74469 -5.67796,-34.01881 -5.67796,-51.06459 0,-1.90209 -0.38999,-4.31165 0.41222,-6.08541 2.00687,-4.4376 7.87586,-8.04096 12.28778,-9.58136 1.87749,-0.65537 4.48522,-1.202 6.33836,-0.16484 3.444612,1.92829 -1.16893,6.33413 -1.91241,8.42328 -0.67416,1.89389 -0.1524,4.68736 0.19447,6.61458 1.94786,10.82305 4.19285,21.63287 7.000882,32.27917 1.36657,5.18107 3.15753,10.36664 4.2537,15.61042 h 0.26459 c 10e-4,-1.4904 1.10304,-5.82375 3.24326,-3.10119 0.57917,0.73687 0.55933,1.94549 0.72549,2.8366 h 0.26458 c 1.11495,-6.47885 3.70919,-12.89103 5.22949,-19.31458 2.26271,-9.5594 3.62876,-19.14287 5.16996,-28.81577 0.29845,-1.87431 0.80883,-4.79293 0.3339,-6.63946 -0.56118,-2.18254 -5.13212,-6.59103 -0.94245,-8.05841 1.70657,-0.59769 3.68433,0.0529 5.29035,0.63659 4.27355,1.55337 9.7155,5.23822 11.13763,9.80413 0.71517,2.29632 0.23945,5.2832 0.23945,7.67292 0,16.60472 -2.24419,33.94604 -5.3168,50.27083 -1.25413,6.66274 -3.62135,13.65065 -4.2082,20.37292 h 0.26459 c 5.51815,-17.22755 9.49007,-35.04592 12.24915,-52.91667 0.65299,-4.22883 1.23057,-8.47751 1.88991,-12.7 0.39423,-2.52359 1.15491,-5.37395 0.91255,-7.9375 -0.14261,-1.50839 -1.13744,-3.03741 -1.58512,-4.49791 -0.61251,-1.99681 -0.78872,-4.27567 -0.9861,-6.35 -0.11483,-1.20545 0.45508,-3.57558 -0.31697,-4.56989 -0.71146,-0.91678 -3.15595,-1.32979 -4.22592,-1.82351 -3.10807,-1.4343 -6.22459,-3.13398 -8.99584,-5.15302 -1.0832,-0.78952 -3.97192,-2.36141 -3.17447,-4.05897 1.64148,-3.49409 9.27179,-2.03015 12.17031,-1.62693 9.3345,1.29805 17.86942,8.89821 22.97535,16.43857 1.35705,2.00422 3.73169,4.45611 4.20397,6.87916 0.6133,3.14537 0.0487,6.88896 -0.16828,10.05417 -0.43259,6.31746 -1.09511,12.52326 -2.06189,18.78542 -2.46275,15.95199 -6.12802,31.75026 -10.20816,47.36041 -1.77165,6.77836 -4.14523,13.48687 -5.48058,20.37292 h 0.26459 c 4.59475,-6.94373 6.66167,-15.46305 9.21305,-23.28333 5.39856,-16.54705 8.97599,-33.77883 12.51453,-50.8 1.27714,-6.14363 2.54291,-12.29546 3.40783,-18.52084 0.25374,-1.82642 1.44489,-5.00591 0.56674,-6.74317 -1.18375,-2.34209 -4.45056,-4.30953 -6.34259,-6.10923 -4.8649,-4.62677 -9.94304,-9.07388 -14.59733,-13.91655 -1.85499,-1.93014 -3.74915,-3.95632 -5.43242,-6.03938 -0.68025,-0.84164 -1.21682,-2.31352 -2.13704,-2.8993 -0.94906,-0.60431 -2.35215,0.30083 -3.27819,0.57864 -2.4982,0.7493 -5.32051,1.49569 -7.9375,1.52585 -1.40044,0.0161 -3.52928,0.0463 -3.63723,-1.85208 -0.12832,-2.25928 2.60403,-4.36192 4.09072,-5.68299 3.63062,-3.22633 8.01556,-5.66896 12.24651,-8.00311 2.27012,-1.25228 4.20449,-2.48709 6.87917,-1.98438 8.18012,1.53697 15.40615,10.89025 20.62453,16.73093 1.87113,2.09444 4.73313,4.69027 5.6478,7.40727 0.86095,2.55773 0.186,6.30502 0.186,8.99584 5.84359,-2.44422 9.9351,-10.92438 12.80954,-16.13959 9.41969,-17.09181 13.74351,-38.452686 15.80938,-57.679163 0.54134,-5.038461 1.1094,-10.048346 1.58856,-15.08125 0.18071,-1.900449 0.80116,-4.834678 -0.0923,-6.614372 -1.79652,-3.578542 -7.65043,-6.106212 -11.06514,-7.717234 -10.3166,-4.867169 -22.87505,-9.515485 -34.3958,-10.01006 v 0.264583 c 3.21468,0.39384 6.52832,1.946645 9.525,3.131106 7.32657,2.895917 14.3338,6.724755 20.6375,11.454447 2.85829,2.144474 6.95563,5.092832 7.99332,8.69778 1.15517,4.014258 0.14632,8.41031 -0.27543,12.435416 -1.07341,10.241757 -3.45228,20.255971 -6.19786,30.1625 -2.21324,7.986977 -4.59449,16.030577 -8.13462,23.547917 -1.016,2.15741 -2.608,6.50399 -5.02735,7.42924 -1.03134,0.39449 -2.00607,-0.95277 -2.60059,-1.60841 -1.90817,-2.1037 -3.79835,-4.191 -5.87613,-6.13145 -5.55704,-5.18901 -11.61388,-9.70359 -17.98134,-13.845912 -2.91148,-1.894152 -6.17062,-4.437856 -9.525,-5.422635 -1.0213,2.261394 -1.73329,4.834731 -3.16918,6.879167 -1.66026,2.36352 -4.36457,4.17195 -6.62041,5.93302 -4.09919,3.20013 -8.22722,6.92626 -13.22916,8.61906 -0.45959,-2.93872 2.0185,-6.67993 3.27395,-9.26041 3.46657,-7.125762 7.08184,-14.172939 10.81061,-21.16667 1.29143,-2.422261 2.92894,-7.562586 5.50519,-8.783108 2.12063,-1.004623 5.20065,-0.548217 7.39775,-0.08308 4.58364,0.970227 8.94847,1.966119 12.96458,4.55295 2.41988,1.558661 4.48918,3.135577 4.49792,6.165321 h 0.26458 c 3.79465,-8.484394 7.9756,-17.28761 10.63678,-26.19375 1.329,-4.44791 2.36008,-10.040672 0.58076,-14.528402 -0.98214,-2.476871 -5.7867,-4.354275 -8.01899,-5.477034 -6.51484,-3.277129 -13.62102,-6.102668 -20.66105,-7.975891 -2.21192,-0.588566 -4.29604,-1.550935 -6.61458,-1.652005 v 0.264583 c 6.9633,1.487964 14.50154,6.385586 20.6375,9.901052 2.54661,1.458939 5.77267,2.978706 7.47342,5.444781 4.63338,6.717771 4.76329,17.029641 1.05119,24.077083 -1.00701,1.911615 -2.6723,4.951677 -4.67863,5.977731 -1.79785,0.919427 -6.51775,-1.278731 -8.3439,-1.871927 -6.33333,-2.056342 -14.22929,-5.424223 -20.90208,-5.428721 0,4.777052 -2.02274,8.643409 -3.89282,12.964583 -2.97524,6.875463 -6.37275,13.55725 -10.00442,20.108334 -1.89283,3.41392 -3.89467,8.41454 -7.00485,10.84792 -1.06495,-3.78989 0.75883,-8.15261 -4.7625,-8.20209 0.71676,2.23573 2.871,3.47689 3.12235,6.08542 0.3855,4.00315 -2.50719,2.2778 -3.38693,-0.26458 h -0.52917 c -0.48022,1.28799 -2.70748,4.27699 -4.30159,2.52068 -0.51991,-0.57309 -0.19685,-2.39315 -1.06257,-2.54159 -1.44621,-0.24765 -1.47743,2.85301 -3.11282,2.85301 -1.35255,0 -1.77192,-1.46579 -1.65497,-2.56752 0.22992,-2.16456 1.61819,-4.20291 3.25279,-5.55625 v -0.26458 c -1.89654,-0.43868 -3.54039,1.10543 -5.027092,2.11666 l 0.793752,4.7625 c -3.091392,-1.45388 -5.112542,-6.17908 -6.828892,-8.99583 -4.36272,-7.159096 -8.22749,-14.651038 -11.81471,-22.225 -1.63036,-3.442758 -3.80497,-7.246144 -3.31681,-11.1125 -7.43824,0.319352 -15.49242,3.21945 -22.75417,4.894792 -2.25108,0.519377 -5.93222,2.392627 -8.20208,1.989931 -2.14022,-0.379677 -4.48707,-4.12115 -5.59197,-5.82639 -4.39447,-6.78127 -5.5335,-18.126339 0.70485,-24.371273 5.18292,-5.188691 12.80795,-8.192188 19.4392,-10.970604 2.10635,-0.882491 7.25884,-1.667298 8.46667,-3.551872 -8.98949,3.301021 -18.46475,4.447196 -27.25209,8.608562 -2.30611,1.092121 -7.06146,2.732352 -8.4193,4.972156 -0.67046,1.105879 -0.46091,3.127878 -0.74851,4.410948 -2.16958,9.672638 3.71793,18.974858 7.97057,27.252083 1.44436,2.811727 3.54859,5.849673 4.10766,8.995833 h 0.79375 c 0.19606,-2.699014 3.08292,-4.674393 5.29272,-5.863166 5.31813,-2.860411 15.54533,-5.888302 21.38416,-2.996936 2.6834,1.328738 4.71461,6.393127 6.2693,8.860102 4.04707,6.421967 7.90972,13.054013 11.30459,19.843754 1.44171,2.88316 3.42027,6.03514 3.9034,9.26041 -3.3999,-0.84984 -6.45372,-3.31417 -9.26042,-5.316 -3.46551,-2.47148 -7.4123,-5.00671 -10.28435,-8.18172 -1.55575,-1.71952 -2.85486,-7.135808 -5.08609,-7.822931 -0.90884,-0.279665 -2.11984,0.66331 -2.88581,1.059921 -2.42147,1.254654 -4.80907,2.607204 -7.14375,4.015581 -7.43955,4.488129 -14.89895,9.397739 -21.43125,15.145809 -2.39607,2.10846 -5.60546,4.43653 -6.87917,7.44934 -3.5298,-3.84677 -5.88274,-9.1313 -8.22404,-13.75833 -6.6079,-13.057717 -10.2106,-26.966598 -12.790366,-41.275 -0.8183299,-4.538927 -1.0516659,-9.16305 -1.3229169,-13.758333 -0.125465,-2.125663 -0.430344,-4.895929 0.517737,-6.878161 1.9329659,-4.041352 6.6555159,-6.905546 10.4424659,-8.97845 6.35609,-3.479192 12.87648,-6.284701 19.57917,-9.012793 3.85339,-1.568318 8.30183,-3.675415 12.43542,-4.234762 -2.85195,-1.113127 -8.48466,0.929933 -11.37709,1.654863 -9.91076,2.484067 -19.75299,4.994962 -29.10416,9.23409 -2.7435999,1.243727 -5.4798419,2.713434 -7.9375029,4.457091 -0.816849,0.579544 -2.076265,1.230789 -2.485973,2.195883 -0.80615795,1.898915 0.23241,5.845625 0.520595,7.858072 0.766603,5.353579 0.89662,10.785475 1.84269,16.139583 3.342402,18.916121 7.1984109,37.921937 17.0573409,54.744937 3.01943,5.15197 7.75891,13.47126 13.49243,15.89881 z"
       id="path134" />
  </g>
</svg>
